<svg aria-hidden="true" style="position: absolute; width: 0; height: 0; overflow: hidden;" version="1.1" xmlns="http://www.w3.org/2000/svg" xmlns:xlink="http://www.w3.org/1999/xlink">
<defs>
<symbol id="icon-faq-arrow" viewBox="0 0 31 32">
<path fill="#fff" style="fill: var(--color1, #fff)" d="M5.597 1.9l1.219 18.218 16.699-19.522 4.657 4.003-16.695 19.583 18.126-1.648-5.503 6.445-22.494 1.968-1.508-22.54 5.5-6.506z"></path>
</symbol>
<symbol id="icon-telegram" viewBox="0 0 39 32">
<path d="M34.791 1.536c0.448-0.18 0.938-0.243 1.419-0.18s0.936 0.247 1.318 0.535c0.382 0.288 0.675 0.669 0.851 1.102s0.227 0.904 0.148 1.363l-4.108 23.866c-0.398 2.302-3.036 3.622-5.24 2.475-1.844-0.959-4.583-2.437-7.046-3.98-1.232-0.772-5.005-3.244-4.541-5.003 0.398-1.504 6.738-7.156 10.361-10.516 1.422-1.32 0.773-2.082-0.906-0.867-4.172 3.015-10.864 7.6-13.078 8.891-1.953 1.138-2.971 1.332-4.188 1.138-2.221-0.354-4.28-0.902-5.961-1.57-2.271-0.902-2.161-3.893-0.002-4.764l30.974-12.49z"></path>
</symbol>
<symbol id="icon-facebook" viewBox="0 0 32 32">
<path d="M31.639 16.197c0-8.333-6.746-15.096-15.059-15.096s-15.059 6.763-15.059 15.096c0 7.307 5.18 13.391 12.047 14.794v-10.265h-3.012v-4.529h3.012v-3.774c0-2.914 2.364-5.284 5.27-5.284h3.765v4.529h-3.012c-0.828 0-1.506 0.679-1.506 1.51v3.019h4.517v4.529h-4.517v10.492c7.604-0.755 13.553-7.186 13.553-15.021z"></path>
</symbol>
<symbol id="icon-instagram" viewBox="0 0 34 32">
<path d="M18.76 0.316c1.132-0.004 2.264 0.007 3.396 0.034l0.301 0.011c0.348 0.012 0.69 0.028 1.105 0.047 1.65 0.078 2.777 0.338 3.765 0.721 1.024 0.394 1.886 0.928 2.749 1.79 0.789 0.775 1.399 1.712 1.789 2.747 0.383 0.988 0.644 2.116 0.721 3.766 0.019 0.413 0.034 0.757 0.047 1.104l0.009 0.301c0.028 1.131 0.040 2.263 0.036 3.394l0.002 1.157v2.032c0.004 1.132-0.008 2.264-0.036 3.396l-0.009 0.301c-0.012 0.347-0.028 0.69-0.047 1.104-0.078 1.651-0.341 2.777-0.723 3.765-0.388 1.036-0.999 1.974-1.789 2.749-0.776 0.789-1.714 1.399-2.749 1.789-0.988 0.383-2.114 0.644-3.765 0.721-0.414 0.019-0.757 0.034-1.105 0.046l-0.301 0.009c-1.132 0.028-2.264 0.039-3.396 0.036l-3.188 0.002c-1.132 0.004-2.264-0.008-3.396-0.036l-0.301-0.009c-0.368-0.013-0.736-0.029-1.104-0.046-1.65-0.078-2.777-0.341-3.766-0.723-1.035-0.389-1.973-0.999-2.747-1.789-0.789-0.775-1.4-1.713-1.79-2.749-0.383-0.988-0.644-2.114-0.721-3.765-0.017-0.368-0.033-0.736-0.047-1.104l-0.008-0.301c-0.029-1.132-0.042-2.264-0.039-3.396v-3.189c-0.004-1.131 0.007-2.263 0.034-3.394l0.011-0.301c0.012-0.347 0.028-0.692 0.047-1.104 0.078-1.652 0.338-2.777 0.721-3.766 0.39-1.035 1.002-1.972 1.793-2.746 0.774-0.79 1.711-1.401 2.746-1.792 0.99-0.383 2.114-0.644 3.766-0.721l1.104-0.047 0.301-0.008c1.131-0.029 2.263-0.041 3.394-0.039l3.189 0.002zM17.165 8.072c-1.028-0.015-2.048 0.175-3.002 0.559s-1.822 0.952-2.554 1.674c-0.732 0.722-1.313 1.581-1.71 2.53s-0.601 1.966-0.601 2.993c0 1.028 0.204 2.045 0.601 2.993s0.978 1.808 1.71 2.53c0.732 0.722 1.6 1.291 2.554 1.674s1.974 0.573 3.002 0.559c2.057 0 4.030-0.817 5.484-2.272s2.272-3.427 2.272-5.484-0.817-4.030-2.272-5.484c-1.454-1.455-3.427-2.27-5.484-2.27zM17.165 11.175c0.618-0.011 1.232 0.101 1.807 0.329s1.097 0.569 1.539 1.003c0.441 0.433 0.792 0.95 1.031 1.52s0.363 1.182 0.363 1.8c0 0.618-0.123 1.23-0.362 1.801s-0.589 1.087-1.031 1.52c-0.441 0.433-0.964 0.774-1.538 1.003s-1.189 0.341-1.807 0.33c-1.234 0-2.418-0.49-3.291-1.363s-1.363-2.056-1.363-3.291c0-1.234 0.49-2.418 1.363-3.291s2.056-1.363 3.291-1.363l-0.002 0.002zM25.309 5.745c-0.5 0.020-0.974 0.233-1.321 0.594s-0.541 0.843-0.541 1.343c0 0.501 0.194 0.982 0.541 1.343s0.82 0.574 1.321 0.594c0.514 0 1.007-0.204 1.371-0.568s0.568-0.857 0.568-1.371-0.204-1.007-0.568-1.371c-0.364-0.364-0.857-0.568-1.371-0.568v0.003z"></path>
</symbol>
<symbol id="icon-burger" viewBox="0 0 45 32">
<path stroke-linejoin="miter" stroke-linecap="round" stroke-miterlimit="4" stroke-width="2.7567" d="M4.291 3.135h35.789"></path>
<path stroke-linejoin="miter" stroke-linecap="round" stroke-miterlimit="4" stroke-width="2.7567" d="M4.291 15.661h35.789"></path>
<path stroke-linejoin="miter" stroke-linecap="round" stroke-miterlimit="4" stroke-width="2.7567" d="M4.291 28.188h35.789"></path>
</symbol>
<symbol id="icon-arrow-left" viewBox="0 0 77 32">
<path fill="#586473" style="fill: var(--color1, #586473)" d="M1.252 14.586c-0.781 0.781-0.781 2.047 0 2.829l12.728 12.728c0.781 0.781 2.047 0.781 2.828 0s0.781-2.047 0-2.828l-11.314-11.314 11.314-11.314c0.781-0.781 0.781-2.047 0-2.828s-2.047-0.781-2.828 0l-12.728 12.728zM77.333 14h-74.667v4h74.667v-4z"></path>
</symbol>
<symbol id="icon-arrow-right" viewBox="0 0 77 32">
<path fill="#586473" style="fill: var(--color1, #586473)" d="M76.081 14.586c0.781 0.781 0.781 2.047 0 2.829l-12.728 12.728c-0.781 0.781-2.047 0.781-2.828 0s-0.781-2.047 0-2.828l11.314-11.314-11.314-11.314c-0.781-0.781-0.781-2.047 0-2.828s2.047-0.781 2.828 0l12.728 12.728zM0 14h74.667v4h-74.667v-4z"></path>
</symbol>
<symbol id="icon-tech-room" viewBox="0 0 32 32">
<path d="M4.619 0.961v-0c0.025-0.046 0.066-0.090 0.108-0.125s0.092-0.069 0.142-0.088c0.012-0.005 0.024-0.006 0.027-0.007l0-0c0.006-0.001 0.012-0.001 0.019-0.002 0.013-0.001 0.030-0.002 0.051-0.003 0.042-0.002 0.1-0.004 0.175-0.005 0.15-0.003 0.367-0.007 0.644-0.009 0.554-0.006 1.349-0.011 2.336-0.014 1.974-0.007 4.713-0.010 7.815-0.007l10.939 0.012 0.147 0.174c0 0 0 0 0 0 0.052 0.061 0.073 0.139 0.089 0.409 0.017 0.278 0.028 0.785 0.036 1.735 0.015 1.902 0.016 5.592 0.016 12.809v14.662h1.621c0.815 0 1.248 0.001 1.494 0.018 0.122 0.008 0.206 0.020 0.269 0.041l-25.929-29.598zM4.619 0.961c-0.008 0.014-0.011 0.028-0.012 0.032zM4.619 0.961l-0.012 0.032zM4.607 0.993l-0 0zM4.607 0.993l-0 0zM4.607 0.993c-0.001 0.007-0.002 0.014-0.003 0.021zM4.607 0.993l-0.003 0.021zM4.604 1.014c-0.002 0.014-0.003 0.031-0.005 0.052zM4.604 1.014l-0.005 0.052zM4.599 1.066c-0.003 0.041-0.005 0.1-0.008 0.175zM4.599 1.066l-0.008 0.175zM4.591 1.241c-0.005 0.151-0.010 0.373-0.014 0.669zM4.591 1.241l-0.014 0.669zM4.577 1.91c-0.008 0.591-0.015 1.479-0.021 2.686zM4.577 1.91l-0.021 2.686zM4.557 4.596c-0.011 2.414-0.016 6.107-0.016 11.262zM4.557 4.596l-0.016 11.262zM4.541 15.858v14.643zM4.541 15.858v14.643zM4.541 30.5h-1.621c-0.815 0-1.248 0.001-1.494 0.018-0.123 0.008-0.206 0.020-0.269 0.041-0.068 0.022-0.108 0.053-0.146 0.087 0 0 0 0-0 0l3.53-0.145zM30.582 31.63c0.388-0.17 0.429-0.701 0.113-0.985l-29.535 0.901-0.036 0.083c0 0 0 0 0 0 0.014 0.006 0.029 0.008 0.033 0.009l0.001 0c0.008 0.001 0.017 0.002 0.026 0.003 0.019 0.002 0.044 0.003 0.075 0.005 0.062 0.003 0.151 0.006 0.263 0.008 0.225 0.005 0.548 0.010 0.954 0.015 0.813 0.009 1.963 0.017 3.337 0.023 2.748 0.012 6.394 0.018 10.039 0.018s7.291-0.006 10.039-0.018c1.374-0.006 2.524-0.014 3.337-0.023 0.407-0.005 0.729-0.010 0.954-0.015 0.112-0.003 0.201-0.005 0.263-0.008 0.031-0.001 0.056-0.003 0.076-0.005 0.009-0.001 0.018-0.002 0.026-0.003 0.004-0.001 0.019-0.003 0.034-0.009zM6.672 16.919v13.581h-0.884v-28.614h20.129v28.614h-0.884l-0.002-13.63c-0.001-5.345-0.006-8.781-0.018-10.889-0.006-1.054-0.014-1.777-0.024-2.242-0.005-0.232-0.011-0.4-0.017-0.513-0.003-0.056-0.007-0.1-0.010-0.132-0.002-0.016-0.004-0.030-0.007-0.043-0.001-0.006-0.003-0.013-0.006-0.021-0.002-0.006-0.007-0.019-0.018-0.033v-0c-0.052-0.065-0.159-0.147-0.243-0.19v0c-0.013-0.007-0.026-0.009-0.030-0.010-0.007-0.001-0.014-0.003-0.021-0.003-0.014-0.002-0.031-0.003-0.050-0.005-0.040-0.003-0.095-0.006-0.163-0.009-0.137-0.005-0.333-0.010-0.577-0.015-0.489-0.009-1.177-0.017-1.998-0.023-1.641-0.013-3.814-0.019-5.987-0.019s-4.348 0.005-5.993 0.017c-0.823 0.006-1.513 0.014-2.005 0.023-0.246 0.005-0.443 0.010-0.582 0.015-0.069 0.003-0.125 0.005-0.166 0.008-0.020 0.002-0.038 0.003-0.052 0.005-0.007 0.001-0.014 0.002-0.021 0.003-0.005 0.001-0.016 0.003-0.027 0.008h-0c-0.055 0.024-0.109 0.064-0.155 0.108s-0.088 0.096-0.113 0.15v0c-0.008 0.017-0.011 0.038-0.012 0.047l-0 0c-0.002 0.013-0.004 0.030-0.005 0.049-0.003 0.038-0.006 0.091-0.009 0.158-0.005 0.135-0.010 0.332-0.015 0.597-0.009 0.528-0.016 1.325-0.022 2.428-0.011 2.205-0.016 5.634-0.016 10.579zM19.511 16.339v0l-0.015 0.279-0.59 0.026c-0.196 0.009-0.353 0.019-0.477 0.036-0.124 0.017-0.224 0.042-0.301 0.083-0.082 0.044-0.135 0.106-0.166 0.188-0.029 0.077-0.035 0.167-0.035 0.265 0 0.186 0.048 0.325 0.168 0.44 0.034 0.033 0.070 0.062 0.115 0.086s0.096 0.040 0.158 0.053c0.12 0.024 0.297 0.034 0.584 0.044l0.571 0.020v0.256c0 0.208 0.033 0.376 0.123 0.501 0.092 0.128 0.233 0.195 0.413 0.228 0.036 0.007 0.101 0.011 0.182 0.015 0.083 0.003 0.188 0.006 0.308 0.008 0.241 0.003 0.543 0.003 0.85-0.003l1.151-0.021 0.026-0.030 0.333-0.372-0.001-0.035-0.019-1.226c-0.002-0.111-0.003-0.214-0.004-0.31-0.003-0.251-0.005-0.453-0.017-0.613-0.017-0.218-0.055-0.385-0.164-0.497s-0.274-0.15-0.487-0.166c-0.155-0.012-0.352-0.012-0.596-0.012-0.093-0-0.193-0-0.301-0.001-0.323-0.002-0.632-0.002-0.87 0.002-0.119 0.002-0.22 0.004-0.297 0.007-0.072 0.003-0.132 0.006-0.159 0.012-0.152 0.031-0.271 0.112-0.353 0.242-0.080 0.127-0.12 0.294-0.131 0.496zM7.919 17.217v-13.283h15.866v26.566h-15.866v-13.283zM21.212 17.669h-0.442v-0.843h0.884v0.843h-0.442z"></path>
</symbol>
<symbol id="icon-office" viewBox="0 0 34 32">
<path d="M18.647 0.271c0.805-0.086 1.785-0.008 2.639 0.209 3.713 0.945 6.081 4.565 5.464 8.352-0.301 1.846-1.337 3.573-2.813 4.689l-0.4 0.302 0.368 0.076c2.811 0.578 5.177 2.683 6.081 5.41 0.365 1.101 0.374 1.202 0.404 4.634l0.028 3.18h0.512c0.634 0 0.906 0.078 1.299 0.374 0.459 0.345 0.691 0.834 0.691 1.457 0 0.371-0.033 0.545-0.145 0.772-0.2 0.405-0.545 0.739-0.963 0.934l-0.354 0.165h-29.625l-0.407-0.219c-1.181-0.637-1.358-2.148-0.356-3.027 0.379-0.332 0.754-0.456 1.384-0.456 0.454 0 0.5-0.011 0.46-0.111-0.096-0.244-0.176-1.005-0.609-5.791-0.432-4.778-0.447-4.998-0.352-5.32 0.193-0.661 0.728-1.166 1.383-1.306 0.206-0.044 1.936-0.067 5-0.068l4.685-0 0.508-0.197c0.279-0.108 0.786-0.259 1.127-0.335l0.619-0.138-0.385-0.279c-0.88-0.638-1.929-1.961-2.351-2.965-0.498-1.186-0.701-2.455-0.576-3.602 0.234-2.142 1.272-4.001 2.928-5.241 1.106-0.828 2.442-1.363 3.757-1.503zM18.139 1.712c-1.166 0.248-2.109 0.749-2.979 1.58-0.941 0.899-1.524 1.971-1.795 3.295-0.043 0.209-0.075 0.736-0.073 1.171 0.004 0.634 0.038 0.917 0.169 1.424 0.885 3.411 4.472 5.365 7.824 4.263 3.068-1.008 4.814-4.208 4.004-7.336-0.422-1.627-1.638-3.107-3.191-3.881-0.851-0.424-1.446-0.56-2.561-0.583-0.675-0.014-1.116 0.007-1.399 0.067zM20.895 15.241c0.093 0.122 0.211 0.346 0.263 0.499 0.066 0.198 0.859 8.101 0.859 8.565 0 0.019 0.937 0.036 2.082 0.038 2.351 0.004 2.461 0.020 2.642 0.388 0.111 0.227 0.111 0.256-0.020 1.013-0.074 0.428-0.174 0.9-0.222 1.048l-0.088 0.269h2.671l-0.027-3.085c-0.029-3.327-0.032-3.367-0.399-4.383-0.701-1.945-2.207-3.443-4.16-4.142-0.816-0.292-1.239-0.358-2.537-0.396l-1.233-0.036 0.169 0.221zM3.537 15.924c-0.077 0.031-0.183 0.122-0.236 0.203-0.088 0.133-0.054 0.615 0.374 5.294 0.5 5.47 0.479 5.325 0.841 5.562 0.161 0.105 0.655 0.113 8.243 0.128 4.44 0.009 8.092-0.005 8.116-0.032 0.060-0.067-0.933-10.768-1.016-10.949-0.037-0.080-0.14-0.174-0.231-0.208-0.209-0.079-15.896-0.077-16.093 0.002zM11.535 20.329c-0.443 0.22-0.659 0.542-0.695 1.035-0.036 0.491 0.066 0.763 0.397 1.067 0.528 0.485 1.212 0.509 1.725 0.060 0.309-0.27 0.471-0.612 0.471-0.993 0-0.395-0.064-0.564-0.329-0.864-0.424-0.48-0.994-0.592-1.57-0.306zM22.207 25.913c0 0.099 0.019 0.398 0.041 0.665l0.041 0.484h1.090c1.005 0 1.112-0.011 1.37-0.142 0.318-0.162 0.477-0.421 0.544-0.886l0.043-0.301h-3.129v0.18zM1.869 28.621c-0.189 0.239-0.169 0.502 0.054 0.724l0.186 0.185h29.136l0.186-0.185c0.237-0.236 0.248-0.518 0.030-0.736l-0.156-0.155h-29.303l-0.132 0.167z"></path>
</symbol>
<symbol id="icon-toilet" viewBox="0 0 24 32">
<path d="M10.769 0.605c-1.053 0.16-2.407 0.677-3.19 1.218l-0.334 0.231-4.071 0.061-0.412 0.194c-0.541 0.255-1.021 0.733-1.277 1.272l-0.195 0.41-0.017 5.416c-0.016 5.259-0.013 5.427 0.104 5.813 0.223 0.732 0.815 1.365 1.54 1.649 0.236 0.092 0.506 0.131 1.061 0.152l0.744 0.028-0.349 0.209c-0.875 0.525-1.474 1.124-1.822 1.823-0.186 0.374-0.224 0.52-0.247 0.943-0.095 1.811 0.746 3.829 2.221 5.326 0.508 0.516 1.128 1.014 1.744 1.403l0.471 0.297-0.034 0.333c-0.019 0.183-0.066 0.76-0.105 1.281-0.067 0.904-0.065 0.967 0.059 1.372 0.163 0.533 0.576 1.012 1.090 1.264l0.346 0.169h8.082l0.346-0.169c0.514-0.251 0.927-0.731 1.090-1.264 0.124-0.406 0.126-0.469 0.059-1.372-0.039-0.521-0.086-1.1-0.106-1.287l-0.035-0.34 0.326-0.186c1.271-0.726 2.611-2.107 3.29-3.389 0.555-1.049 0.872-2.362 0.822-3.406-0.022-0.459-0.055-0.589-0.247-0.974-0.349-0.701-0.947-1.299-1.823-1.825l-0.349-0.209 0.744-0.029c0.464-0.018 0.841-0.066 1.004-0.126 0.737-0.274 1.367-0.93 1.593-1.656 0.118-0.382 0.122-0.556 0.122-5.677 0-5.091-0.004-5.297-0.12-5.67-0.225-0.726-0.687-1.252-1.392-1.584l-0.403-0.19-4.071-0.061-0.275-0.192c-0.837-0.584-2.171-1.094-3.287-1.257-0.777-0.113-1.948-0.113-2.696 0.001zM11.108 1.6c-3.594 0.503-5.682 3.060-6.144 7.523-0.047 0.452-0.062 1.197-0.042 2.028 0.026 1.099 0.057 1.432 0.188 2.043 0.18 0.841 0.495 1.781 0.83 2.477 0.365 0.759 0.287 0.72 1.031 0.51 1.679-0.475 3.161-0.669 5.135-0.67 1.961-0.001 3.194 0.148 4.892 0.592 0.451 0.118 0.86 0.219 0.909 0.225 0.127 0.014 0.618-0.993 0.907-1.863 0.448-1.348 0.524-1.889 0.524-3.756-0-1.756-0.059-2.321-0.374-3.57-0.751-2.983-2.549-4.875-5.156-5.427-0.632-0.134-2.105-0.194-2.699-0.111zM11.195 2.637c-2.267 0.288-3.886 1.695-4.679 4.066-0.372 1.112-0.577 2.425-0.577 3.689 0 0.641 0.010 0.697 0.141 0.82 0.182 0.17 0.543 0.177 0.707 0.014 0.146-0.145 0.171-0.306 0.21-1.335 0.083-2.188 0.704-3.978 1.735-5.005 0.751-0.748 1.612-1.12 2.892-1.251 0.801-0.082 0.961-0.15 1.015-0.43 0.041-0.211-0.108-0.509-0.289-0.577-0.184-0.070-0.555-0.067-1.153 0.009zM3.136 3.282c-0.363 0.189-0.684 0.562-0.78 0.907-0.041 0.147-0.063 2.015-0.063 5.378-0 5.597-0.011 5.407 0.337 5.863 0.088 0.115 0.325 0.291 0.529 0.393 0.348 0.173 0.409 0.183 1.084 0.183h0.716l-0.171-0.378c-0.697-1.537-1.004-3.496-0.905-5.765 0.112-2.552 0.739-4.718 1.789-6.178 0.17-0.237 0.329-0.462 0.353-0.5 0.032-0.052-0.29-0.070-1.26-0.070h-1.303l-0.325 0.169zM18.282 3.228c1.183 1.635 1.767 3.212 2.027 5.478 0.128 1.117 0.128 2.999 0 3.901-0.125 0.877-0.38 1.879-0.665 2.611-0.123 0.316-0.24 0.625-0.259 0.686-0.033 0.104 0.010 0.11 0.718 0.091 0.593-0.016 0.803-0.045 0.99-0.137 0.303-0.149 0.589-0.435 0.739-0.736 0.113-0.227 0.118-0.432 0.134-5.462 0.011-3.489-0.005-5.303-0.047-5.46-0.095-0.352-0.414-0.727-0.782-0.918l-0.325-0.169h-1.307c-1.273 0-1.305 0.003-1.224 0.115zM10.405 16.585c-0.1 0.014-0.442 0.054-0.76 0.089-2.455 0.274-4.725 1.157-5.732 2.23-0.917 0.977-0.745 1.979 0.501 2.922 1.111 0.84 3.009 1.483 5.271 1.785 1.092 0.146 3.81 0.146 4.902 0 1.769-0.236 3.080-0.602 4.264-1.192 1.472-0.733 2.171-1.557 2.079-2.45-0.134-1.295-1.861-2.37-4.807-2.994-1.454-0.308-2.126-0.377-3.865-0.396-0.919-0.010-1.753-0.007-1.853 0.006zM10.116 17.67c-2.165 0.261-3.651 0.873-4.060 1.672-0.153 0.299-0.153 0.773 0 1.072 0.548 1.069 2.943 1.764 6.081 1.764s5.534-0.695 6.081-1.764c0.153-0.299 0.153-0.773 0-1.072-0.416-0.813-1.899-1.415-4.121-1.674-0.946-0.11-3.060-0.109-3.98 0.002zM10.189 18.698c-0.804 0.097-1.234 0.185-1.85 0.377-0.821 0.256-1.367 0.577-1.367 0.803 0 0.359 1.31 0.894 2.745 1.122 0.967 0.154 3.212 0.187 4.288 0.063 1.736-0.2 3.297-0.761 3.297-1.185 0-0.296-0.816-0.697-1.976-0.972-1.213-0.287-3.662-0.387-5.137-0.209zM4.088 23.071c0.382 0.657 0.797 1.186 1.352 1.723 0.861 0.831 1.841 1.456 2.959 1.886 3.038 1.167 6.559 0.825 9.21-0.894 0.85-0.551 1.89-1.598 2.38-2.394 0.192-0.312 0.339-0.577 0.328-0.589s-0.21 0.093-0.44 0.232c-2.839 1.719-8.129 2.248-12.299 1.229-1.319-0.322-2.477-0.772-3.241-1.259-0.191-0.122-0.363-0.221-0.382-0.221s0.040 0.129 0.132 0.287zM7.649 28.561c-0.063 0.884-0.060 1.023 0.027 1.24 0.121 0.301 0.442 0.591 0.707 0.639 0.109 0.020 1.869 0.028 3.91 0.018l3.712-0.018 0.23-0.175c0.127-0.096 0.282-0.292 0.346-0.435 0.108-0.244 0.111-0.32 0.044-1.262-0.040-0.551-0.092-1.003-0.116-1.003s-0.369 0.107-0.765 0.239c-2.381 0.789-4.791 0.788-7.216-0.003-0.398-0.13-0.742-0.236-0.765-0.236s-0.074 0.448-0.113 0.996z"></path>
</symbol>
<symbol id="icon-wardrobe" viewBox="0 0 32 32">
<path d="M5.329 1.494c0.362-0.071 21.051-0.076 21.434-0.005 0.793 0.147 1.536 0.724 1.887 1.464l0.182 0.384 0.028 12.238 0.028 12.238 0.347 0.173c0.39 0.195 0.908 0.7 1.096 1.069 0.168 0.329 0.291 0.833 0.291 1.191v0.301h-1.692l-0.025-0.304c-0.044-0.532-0.374-0.834-0.911-0.833-0.479 0-0.84 0.373-0.84 0.867l-0 0.27h-1.722l0.031-0.489c0.026-0.412 0.063-0.555 0.238-0.91 0.247-0.501 0.631-0.9 1.111-1.156l0.342-0.182v-2.211h-22.173v2.211l0.341 0.182c0.469 0.25 0.873 0.672 1.117 1.166 0.17 0.344 0.208 0.49 0.234 0.9l0.030 0.489h-1.722l-0-0.27c-0-0.494-0.361-0.867-0.84-0.867-0.537-0.001-0.867 0.301-0.911 0.833l-0.025 0.304h-1.692v-0.301c0-0.358 0.123-0.862 0.291-1.191 0.188-0.37 0.706-0.874 1.096-1.069l0.347-0.173 0.028-12.241 0.028-12.241 0.211-0.428c0.349-0.707 1.064-1.263 1.813-1.41zM5.452 3.25c-0.377 0.171-0.47 0.377-0.47 1.040l-0 0.554h22.173v-0.548c0-0.653-0.103-0.88-0.478-1.050-0.224-0.102-0.615-0.106-10.609-0.106-10.11 0-10.382 0.003-10.616 0.109zM4.982 15.222v8.672h22.173v-17.344h-7.561v1.509l1.436 0.476c0.79 0.262 2.107 0.706 2.928 0.987l1.492 0.511v3.153c0 2.976-0.006 3.152-0.1 3.124-0.055-0.016-0.509-0.134-1.009-0.263s-0.954-0.247-1.009-0.263c-0.094-0.027-0.1 0.14-0.1 2.96v2.989h-14.327v-2.992c0-2.758-0.007-2.989-0.094-2.955-0.052 0.020-0.506 0.139-1.009 0.264s-0.96 0.242-1.015 0.258c-0.094 0.028-0.099-0.147-0.099-3.123v-3.153l2.629-0.89c1.446-0.489 2.764-0.932 2.928-0.985l0.298-0.095v-1.514h-7.561v8.672zM14.262 7.304l0.016 0.753 1.791 0.609 1.791-0.609 0.016-0.753 0.016-0.753h-3.645l0.016 0.753zM10.895 10.411l-2.473 0.84-0.015 1.431c-0.009 0.86 0.006 1.431 0.038 1.431 0.029 0 0.497-0.115 1.039-0.255s1.017-0.256 1.056-0.256c0.056-0 0.071 0.68 0.071 3.212v3.213h5.572v-3.213c0-2.536 0.015-3.213 0.071-3.213 0.039 0 0.519 0.115 1.066 0.255s1.027 0.255 1.067 0.256c0.057 0.001 0.069-0.305 0.057-1.43l-0.015-1.431-2.445-0.816c-1.345-0.449-2.483-0.827-2.53-0.84s-1.198 0.353-2.558 0.815zM20.162 13.204c0 1.72-0.010 3.128-0.022 3.128s-0.509-0.125-1.105-0.279c-0.596-0.153-1.097-0.264-1.115-0.246s-0.032 0.975-0.032 2.127v2.094h3.639v-3.213c0-2.187 0.019-3.213 0.059-3.213 0.032 0 0.518 0.115 1.078 0.256s1.033 0.256 1.050 0.256c0.017 0 0.025-0.646 0.016-1.436l-0.015-1.436-1.706-0.579c-0.938-0.319-1.738-0.581-1.777-0.583-0.056-0.003-0.071 0.658-0.071 3.124z"></path>
</symbol>
<symbol id="icon-bed" viewBox="0 0 35 32">
<path d="M14.476 1.257c1.364-0.085 5.535-0.030 6.926 0.092 2.513 0.22 4.78 0.569 7.055 1.084 1.954 0.442 3.172 0.798 3.37 0.985 0.362 0.341 0.347 0.009 0.347 7.853v7.263l0.393 0.559c0.679 0.967 1.182 2.141 1.459 3.402 0.137 0.623 0.145 0.84 0.167 4.423l0.023 3.767-0.149 0.262c-0.271 0.475-0.833 0.642-1.302 0.387-0.391-0.213-0.523-0.542-0.524-1.305l-0.001-0.656h-29.74l-0.001 0.656c-0.001 0.554-0.024 0.696-0.148 0.918-0.377 0.673-1.295 0.673-1.678 0l-0.149-0.262 0.022-3.767c0.021-3.589 0.029-3.798 0.167-4.423 0.267-1.211 0.687-2.225 1.33-3.207l0.392-0.599 0.001-7.322c0.001-7.007 0.007-7.334 0.124-7.599 0.204-0.46 0.322-0.511 2.35-1.032 2.913-0.747 6.345-1.279 9.565-1.48zM14.904 3.25c-3.505 0.217-6.37 0.648-9.442 1.42l-1.020 0.256-0.017 5.934c-0.009 3.264-0.004 5.934 0.011 5.934s0.245-0.131 0.51-0.291c0.265-0.16 0.725-0.395 1.020-0.521l0.538-0.231 0.021-2.39 0.021-2.39 0.217-0.45c0.247-0.513 0.596-0.858 1.132-1.12l0.362-0.177h6.382l0.375 0.18c0.478 0.229 0.936 0.697 1.16 1.186l0.176 0.383 0.021 2.136 0.021 2.136h1.959l0.040-4.272 0.173-0.378c0.244-0.532 0.592-0.897 1.099-1.152l0.436-0.219h6.385l0.375 0.18c0.477 0.229 0.9 0.661 1.144 1.17l0.192 0.399 0.020 2.405c0.016 1.928 0.037 2.405 0.106 2.405 0.047 0 0.49 0.207 0.984 0.459l0.897 0.459-0.017-5.892-0.017-5.892-0.855-0.222c-2.736-0.71-6.146-1.237-9.226-1.424-1.012-0.062-4.33-0.077-5.184-0.024zM8.592 11.316c-0.089 0.091-0.103 0.373-0.103 2.060v1.954l0.206-0.042c0.113-0.023 1.445-0.042 2.961-0.042h2.755v-1.912c0-1.649-0.014-1.927-0.103-2.018-0.091-0.093-0.441-0.106-2.857-0.106s-2.767 0.013-2.858 0.106zM20.435 11.316c-0.089 0.091-0.103 0.369-0.103 2.018v1.912h2.755c1.515 0 2.848 0.019 2.961 0.042l0.206 0.042v-1.949c0-1.803-0.009-1.957-0.12-2.060-0.108-0.1-0.403-0.111-2.857-0.111-2.401 0-2.75 0.013-2.841 0.106zM8.39 17.339c-2.289 0.343-4.429 2.039-5.331 4.225-0.179 0.433-0.492 1.517-0.492 1.701 0 0.030 6.662 0.054 14.804 0.054s14.804-0.024 14.804-0.054-0.063-0.309-0.14-0.62c-0.43-1.738-1.501-3.269-2.965-4.237-0.63-0.416-1.288-0.711-2.157-0.963-0.494-0.144-0.512-0.144-9.312-0.154-4.849-0.006-8.994 0.017-9.212 0.049zM2.501 26.347v1.009h29.74v-2.018h-29.74v1.009z"></path>
</symbol>
</defs>
</svg>
